<svg id="Group_1176" data-name="Group 1176" xmlns="http://www.w3.org/2000/svg" width="52.257" height="69.752" viewBox="0 0 52.257 69.752">
  <g id="Group_959" data-name="Group 959">
    <path id="Path_58113" data-name="Path 58113" d="M217.93-200.87A26.126,26.126,0,0,0,191.8-174.744a26.14,26.14,0,0,0,18.8,25.091l7.325,18.536,7.325-18.536a26.138,26.138,0,0,0,18.806-25.091A26.128,26.128,0,0,0,217.93-200.87Zm.006,46.417a20.285,20.285,0,0,1-20.286-20.286,20.285,20.285,0,0,1,20.286-20.286,20.283,20.283,0,0,1,20.28,20.286A20.283,20.283,0,0,1,217.936-154.453Z" transform="translate(-191.804 200.87)" fill="#fff"/>
  </g>
  <rect id="WAWsiteJC-0111" width="42" height="42" rx="21" transform="translate(5.385 4.752)" fill="#868686"/>
</svg>
